{"title":"Catch..44.2011.BRRip.XViD-RLF","uid":6857933,"size":740903606,"categoryP":"video","categoryS":"movies","magnet":"?xt=urn:btih:49ca398b70b9f621e464c951d71fd1bc19d931e1&amp;dn=Catch..44.2011.BRRip.XViD-RLF&amp;tr=udp%3A%2F%2Ftracker.openbittorrent.com%3A80&amp;tr=udp%3A%2F%2Fopen.demonii.com%3A1337&amp;tr=udp%3A%2F%2Ftracker.coppersurfer.tk%3A6969&amp;tr=udp%3A%2F%2Fexodus.desync.com%3A6969","seeders":0,"leechers":1,"uploader":"rlf-rls","files":-1,"time":1322771128,"description":"Catch.44.2011.BRRip.XViD-RLF\n~~~~~~~~~~~~~~~~~~~~~~~~~~~~                                            \n\nGeneral:\n\nComplete name                    : rlf-catch44.avi\nFormat                           : AVI\nFormat/Info                      : Audio Video Interleave\nFile size                        : 699 MiB\nDuration                         : 1h 33mn\nOverall bit rate                 : 1 041 Kbps\nLanguage                         : English\nSubs                             : N/A \nEncoder                          : Ralf\n\nVideo:\n\nFormat                           : MPEG-4 Visual\nFormat profile                   : Advanced Simple@L5\nFormat settings, BVOP            : 2\nFormat settings, QPel            : No\nFormat settings, GMC             : No warppoints\nFormat settings, Matrix          : H.263\nMuxing mode                      : Packed bitstream\nCodec ID                         : XVID\nDuration                         : 1h 33mn\nBit rate                         : 900 Kbps\nWidth                            : 688 pixels\nHeight                           : 288 pixels\nDisplay aspect ratio             : 2.35:1\nFrame rate                       : 23.976 fps\nColor space                      : YUV\nChroma subsampling               : 4:2:0\nBit depth                        : 8 bits\nScan type                        : Progressive\nBits/(Pixel*Frame)               : 0.189\nStream size                      : 604 MiB (86%)\n\nAudio:\n\n\nFormat                           : MPEG Audio\nFormat profile                   : Layer 3\nCodec ID/Hint                    : MP3\nDuration                         : 1h 33mn\nBit rate mode                    : Constant\nBit rate                         : 128 Kbps\nChannel(s)                       : 2 channels\nSampling rate                    : 48.0 KHz\nStream size                      : 85.9 MiB (12%)\nAlignment                        : Split accross interleaves\nInterleave, duration             : 24 ms (0.58 video frame)\n\n\nMOVIE INFO:\n\nFor Tes and her two cohorts  Kara and Tara, the job sounded \nsimple enough:  intercept a double-cross drug shipment for their crime \nboss Mel at an isolated diner. But when an unstoppable chain of events \nunfolds, everyone soon realizes no one is who they seem and the job may \nbe something other than eliminating the competition. What started as \nsimple instructions has now turned into a deadly cat-and-mouse game \nwith large guns pointed at everyone.\n                                           &lt;a href=&quot;\nhttp://www.imdb.com/title/tt1886493/&quot; rel=&quot;nofollow&quot; target=&quot;_NEW&quot;&gt;\nhttp://www.imdb.com/title/tt1886493/&lt;/a&gt; &lt;a href=&quot;\nhttp://www.filmweb.pl/film/Catch+.44-2011-491087&quot; rel=&quot;nofollow&quot; target=&quot;_NEW&quot;&gt;\nhttp://www.filmweb.pl/film/Catch+.44-2011-491087&lt;/a&gt;\n                                               \nSOURCE:\n\nHDChina's 1080p.BluRay.x264 (THX)\n\nSCREENS:\n &lt;a href=&quot;\nhttp://www.postimg.com/54000/photo-53572.jpg&quot; rel=&quot;nofollow&quot; target=&quot;_NEW&quot;&gt;\nhttp://www.postimg.com/54000/photo-53572.jpg&lt;/a&gt; &lt;a href=&quot;\nhttp://www.postimg.com/54000/photo-53573.jpg&quot; rel=&quot;nofollow&quot; target=&quot;_NEW&quot;&gt;\nhttp://www.postimg.com/54000/photo-53573.jpg&lt;/a&gt; &lt;a href=&quot;\nhttp://www.postimg.com/54000/photo-53574.jpg&quot; rel=&quot;nofollow&quot; target=&quot;_NEW&quot;&gt;\nhttp://www.postimg.com/54000/photo-53574.jpg&lt;/a&gt; &lt;a href=&quot;\nhttp://www.postimg.com/54000/photo-53575.jpg&quot; rel=&quot;nofollow&quot; target=&quot;_NEW&quot;&gt;\nhttp://www.postimg.com/54000/photo-53575.jpg&lt;/a&gt;","torrent":{"xt":"urn:btih:49ca398b70b9f621e464c951d71fd1bc19d931e1","amp;dn":"Catch..44.2011.BRRip.XViD-RLF","amp;tr":["udp%3A%2F%2Ftracker.openbittorrent.com%3A80","udp%3A%2F%2Fopen.demonii.com%3A1337","udp%3A%2F%2Ftracker.coppersurfer.tk%3A6969","udp%3A%2F%2Fexodus.desync.com%3A6969"],"infoHash":"49ca398b70b9f621e464c951d71fd1bc19d931e1","infoHashBuffer":{"type":"Buffer","data":[73,202,57,139,112,185,246,33,228,100,201,81,215,31,209,188,25,217,49,225]},"announce":[],"urlList":[]}}